<?xml version="1.0" encoding="UTF-8"?>
<svg width="24px" height="24px" viewBox="0 0 24 24" version="1.1" xmlns="http://www.w3.org/2000/svg" xmlns:xlink="http://www.w3.org/1999/xlink">
    <g id="eye-scan" stroke="none" stroke-width="1" fill="none" fill-rule="evenodd">
        <g id="eye_24dp-copy" transform="translate(1.000000, 4.500000)" fill="#000000" fill-rule="nonzero">
            <path d="M11,15 C8.56666667,15 6.35,14.3208333 4.35,12.9625 C2.35,11.6041667 0.9,9.78333333 0,7.5 C0.9,5.21666667 2.35,3.39583333 4.35,2.0375 C6.35,0.679166667 8.56666667,0 11,0 C13.4333333,0 15.65,0.679166667 17.65,2.0375 C19.65,3.39583333 21.1,5.21666667 22,7.5 C21.1,9.78333333 19.65,11.6041667 17.65,12.9625 C15.65,14.3208333 13.4333333,15 11,15 Z M11,13 C12.8833333,13 14.6125,12.5041667 16.1875,11.5125 C17.7625,10.5208333 18.9666667,9.18333333 19.8,7.5 C18.9666667,5.81666667 17.7625,4.47916667 16.1875,3.4875 C14.6125,2.49583333 12.8833333,2 11,2 C9.11666667,2 7.3875,2.49583333 5.8125,3.4875 C4.2375,4.47916667 3.03333333,5.81666667 2.2,7.5 C3.03333333,9.18333333 4.2375,10.5208333 5.8125,11.5125 C7.3875,12.5041667 9.11666667,13 11,13 Z" id="Shape"></path>
            <path d="M12.2,4 L12.94,4.77777778 L14.2,4.77777778 C14.42,4.77777778 14.6083333,4.85393519 14.765,5.00625 C14.9216667,5.15856481 15,5.34166667 15,5.55555556 L15,10.2222222 C15,10.4361111 14.9216667,10.619213 14.765,10.7715278 C14.6083333,10.9238426 14.42,11 14.2,11 L7.8,11 C7.58,11 7.39166667,10.9238426 7.235,10.7715278 C7.07833333,10.619213 7,10.4361111 7,10.2222222 L7,5.55555556 C7,5.34166667 7.07833333,5.15856481 7.235,5.00625 C7.39166667,4.85393519 7.58,4.77777778 7.8,4.77777778 L9.06,4.77777778 L9.8,4 L12.2,4 Z M11.4278321,5.5 L10.5721679,5.5 L9.64716792,6.53703704 L8.5,6.53703704 L8.5,9.5 L13.5,9.5 L13.5,6.53703704 L12.3528321,6.53703704 L11.4278321,5.5 Z" id="Combined-Shape"></path>
            <path d="M11,9.16294983 C11.3472222,9.16294983 11.6423611,9.04142206 11.8854167,8.7983665 C12.1284722,8.55531095 12.25,8.26017206 12.25,7.91294983 C12.25,7.56572761 12.1284722,7.27058872 11.8854167,7.02753317 C11.6423611,6.78447761 11.3472222,6.66294983 11,6.66294983 C10.6527778,6.66294983 10.3576389,6.78447761 10.1145833,7.02753317 C9.87152778,7.27058872 9.75,7.56572761 9.75,7.91294983 C9.75,8.26017206 9.87152778,8.55531095 10.1145833,8.7983665 C10.3576389,9.04142206 10.6527778,9.16294983 11,9.16294983 Z" id="Path"></path>
        </g>
    </g>
</svg>